inDegrees=no
num_controls=7
num_derivatives=13
num_iterations=129
num_multipliers=7
num_parameters=0
num_slacks=7
num_states=26
objective=5.180796
objective_accelerations=0.658069
objective_balance=0.013812
objective_effort=0.165851
objective_height=4.226845
objective_ligament=0.116220
solver_duration=1419.112944
status=Solve_Succeeded
success=true
DataType=double
version=3
OpenSimVersion=4.4-2022-07-23-0e9fedc
endheader
time	/jointset/ground_pelvis/pelvis_tilt/value	/jointset/ground_pelvis/pelvis_tx/value	/jointset/ground_pelvis/pelvis_ty/value	/jointset/hip_l/hip_flexion_l/value	/jointset/hip_l/hip_adduction_l/value	/jointset/hip_l/hip_rotation_l/value	/jointset/back/lumbar_extension/value	/jointset/patellofemoral_l/patellar_flexion_l/value	/jointset/knee_l/knee_flexion_l/value	/jointset/knee_l/knee_adduction_l/value	/jointset/knee_l/knee_rotation_l/value	/jointset/ankle_l/ankle_angle_l/value	/jointset/subtalar_l/subtalar_angle_l/value	/jointset/ground_pelvis/pelvis_tilt/speed	/jointset/ground_pelvis/pelvis_tx/speed	/jointset/ground_pelvis/pelvis_ty/speed	/jointset/hip_l/hip_flexion_l/speed	/jointset/hip_l/hip_adduction_l/speed	/jointset/hip_l/hip_rotation_l/speed	/jointset/back/lumbar_extension/speed	/jointset/patellofemoral_l/patellar_flexion_l/speed	/jointset/knee_l/knee_flexion_l/speed	/jointset/knee_l/knee_adduction_l/speed	/jointset/knee_l/knee_rotation_l/speed	/jointset/ankle_l/ankle_angle_l/speed	/jointset/subtalar_l/subtalar_angle_l/speed	/forceset/tau_hip_flexion_l	/forceset/tau_hip_adduction_l	/forceset/tau_hip_rotation_l	/forceset/tau_knee_flexion_l	/forceset/tau_ankle_angle_l	/forceset/tau_subtalar_angle_l	/forceset/tau_lumbar_extension	lambda_cid13_p0	lambda_cid13_p1	lambda_cid13_p2	lambda_cid13_p3	lambda_cid13_p4	lambda_cid13_p5	lambda_cid14_p0	/jointset/ground_pelvis/pelvis_tilt/accel	/jointset/ground_pelvis/pelvis_tx/accel	/jointset/ground_pelvis/pelvis_ty/accel	/jointset/hip_l/hip_flexion_l/accel	/jointset/hip_l/hip_adduction_l/accel	/jointset/hip_l/hip_rotation_l/accel	/jointset/back/lumbar_extension/accel	/jointset/patellofemoral_l/patellar_flexion_l/accel	/jointset/knee_l/knee_flexion_l/accel	/jointset/knee_l/knee_adduction_l/accel	/jointset/knee_l/knee_rotation_l/accel	/jointset/ankle_l/ankle_angle_l/accel	/jointset/subtalar_l/subtalar_angle_l/accel	gamma_cid13_p0	gamma_cid13_p1	gamma_cid13_p2	gamma_cid13_p3	gamma_cid13_p4	gamma_cid13_p5	gamma_cid14_p0
0.5	-0.1793937459426763	0.03534808667242727	0.7826853889073633	0.924360179336555	-0.3583412861408882	-0.02507217225969322	-0.397772794390553	0.9293666843057534	0.9293666843058067	-0.01725592208771383	-0.1745070040066452	0.3120721365168985	0.1701282589728035	-0.672732265928331	-0.1525056496954229	-0.4855811266958808	2.215708103341627	0.003004703231191674	0.5372057293566671	-0.3131408258907223	1.923015097287056	1.923015097287029	0.2427542408801586	0.0003537564684454896	0.5315441273756393	0.2300447205228836	-0.08766963612789812	0.02199822289494787	-0.002924212318108689	-0.2089673496713766	0.008628325639769526	0.02241546439140623	0.1068466421581655	-20.99188511921093	-5.218558778851114	-0.4095968387622123	-1.081298672916339	-441.5306843619107	-73.66292155550292	-5.800308353691662	0.2044902656191179	0.370141658349879	-0.4259120728253667	-1.051328900694895	0.1713374352712887	-0.6286322714375283	1.330321065932884	-1.508401691481377	-1.508401691481399	-0.1860896210963284	0.002152471931418111	-0.7740304262802811	0.1612086413655169	-4.311614367845878e-07	-6.908561421771468e-07	4.820621040798867e-06	1.665753118074889e-07	-8.978287309370338e-07	-1.237197183542529e-06	-6.58400414079292e-07
0.51	-0.1861090307654301	0.03384180072823192	0.7778094740385563	0.9464601699285591	-0.3583048563345772	-0.01972753434664761	-0.4008383761183356	0.9485180732880956	0.9485180732881761	-0.01484514634707903	-0.1745036323334077	0.3173474119822959	0.1724330280124995	-0.6702299095793467	-0.1487315966909589	-0.4894919577215569	2.203985819716491	0.004279631870313646	0.5316758507435804	-0.2999487538260934	1.906995748407828	1.906995748407798	0.2393940891123714	0.0003132835722477382	0.5234406278999642	0.2308698815536406	-0.09193012984079967	0.02279939608390193	-0.003212038448506463	-0.2113494660789562	0.006989517055275054	0.02294083164095936	0.1101440249573981	-21.6471283562599	-5.24336314865795	-0.506885182322697	-0.9302782911123321	-444.4962101226727	-73.93615139270237	-5.141844848601397	0.287284402063393	0.3840655681288981	-0.3573615412729205	-1.278366821323475	0.1046352836110879	-0.5226852915726541	1.317665152764256	-1.688614036025492	-1.68861403602587	-0.4120149543458859	-0.007350773233543582	-0.8391109177945606	0.03680193357688017	-4.194153857568461e-07	-3.957773898600283e-07	4.785310486898469e-06	2.029802965858236e-07	-8.58281674111327e-07	-9.501747369675301e-07	-6.368603167258129e-07
0.52	-0.1927964568081939	0.03237386100340794	0.7728977122747259	0.9684337999387249	-0.3582558643007696	-0.01443969914684741	-0.4037712341502684	0.9675012862717108	0.9675012862717445	-0.01246817952410919	-0.1745007061096005	0.322539532211019	0.1747447750824333	-0.667160509929315	-0.1448364058211498	-0.4927505057006455	2.19043598697535	0.005517148724595922	0.5258451867173498	-0.286596086719992	1.889379897533315	1.889379897533282	0.2359924573555523	0.000264666562513788	0.5149130800409446	0.2314403265702299	-0.09619062355380141	0.02360056927266452	-0.00349986457918007	-0.2137315824865932	0.005350708470714852	0.0234661988901973	0.1134414077565703	-22.29738370321425	-5.277325417299472	-0.5932482136936197	-0.8175319983985896	-447.3954144324707	-74.30379549254867	-4.529364178938953	0.3178989258288491	0.394369231418801	-0.2954554635078719	-1.416838723895792	0.1638550783032102	-0.6887893540667183	1.362440074227407	-1.827702090538319	-1.827702090538322	-0.1943856189025939	0.0005236492237186306	-0.8588401029492942	0.1102654385317868	-4.033696901144297e-07	-9.044501577020392e-08	4.707143289584662e-06	2.385095243573976e-07	-8.11114829603586e-07	-6.443080928188952e-07	-6.09639506533725e-07
0.53	-0.1994505709472792	0.0309454145013203	0.7679566494297487	0.9902631812487431	-0.3581944667469103	-0.009211119279447197	-0.4065697999321668	0.9863005838754147	0.9863005838752535	-0.01012548551105595	-0.1744978477209024	0.3276443771372612	0.1770612153659447	-0.6635766839576285	-0.1408385435002067	-0.4953480026597145	2.175148082725848	0.006758087431249451	0.5198277303112286	-0.273107124873389	1.870218806084483	1.87021880608448	0.232531895375531	0.0002977943584580509	0.5059876172009939	0.2318022466197275	-0.1003452144772841	0.02439482496287251	-0.003685801030318896	-0.2164167513213844	0.003944967864164248	0.02371709343866673	0.1166296505454564	-22.91199004401691	-5.165890397004517	-0.7398432340323819	-0.6672825744173569	-450.447654223631	-74.45425876047477	-3.962282053780832	0.3914325627485574	0.4046988309678158	-0.2249449849281608	-1.628648646329238	0.1028639390400926	-0.5652315077069103	1.343615957849444	-1.99931617114005	-1.999316171135471	-0.4240169434483825	0.00421009149979535	-0.9196676803155113	-0.008233055832495197	-3.59719782823989e-07	-8.276165694422948e-08	4.248085200876206e-06	2.135567623078709e-07	-7.232382485881705e-07	-4.987066841480553e-07	-5.549903475688164e-07
0.54	-0.2060662852006798	0.02955738744214942	0.7629930019806166	1.011930907042075	-0.358120929671543	-0.004044115520926222	-0.4092331777520073	1.004900469864745	1.004900469864562	-0.007817822208612848	-0.1744947575049087	0.3326579137739432	0.1793797971811527	-0.6594805327894701	-0.1367525172377984	-0.4972674265317169	2.158104883642319	0.007945053025757043	0.5135299649521589	-0.2595584943078609	1.849497574672269	1.849497574672295	0.2289863151595957	0.0003110320232213429	0.4966514221291348	0.2318686329095612	-0.1044998054009013	0.0251890806526221	-0.003871737477343316	-0.2191019201561646	0.002539227257478996	0.02396798798641406	0.1198178933342585	-23.52331179635926	-5.061624186367072	-0.8777614152917018	-0.5518192286051751	-453.4495318879993	-74.69171575397041	-3.439718628682786	0.4203639651234928	0.412002019711792	-0.1598408460945803	-1.767897690701335	0.1530604558742288	-0.7448511446566894	1.374373818012424	-2.139730083214728	-2.139730083214698	-0.2113892660852709	-0.003454377012843565	-0.9409865493310539	0.05115868659887247	-2.855290456250953e-07	-4.043921022399653e-07	3.367615913177923e-06	1.216877562009556e-07	-5.903211080323488e-07	-5.304200040909484e-07	-4.699949303871696e-07
